<svg enable-background="new 0 0 36 36" height="512" viewBox="0 0 36 36" width="512" xmlns="http://www.w3.org/2000/svg"><g id="BG"><g><path d="m34.928 20.591c-3.693-5.848-3.199-11.778-4.979-14.596s-7.138-7.714-20.103.473-9.84 17.35-7.882 20.45c9.166 14.515 39.504 4.031 32.964-6.327z" fill="#efefef"/></g></g><g id="effect"><g><g><path d="m19.875 3.441h2v1h-2z" fill="#a4afc1"/></g><g><path d="m14.125 3.441h2v1h-2z" fill="#a4afc1"/></g><g><path d="m17.625-.059h1v2h-1z" fill="#a4afc1"/></g></g><g><path d="m29.25 30.75c-.827 0-1.5-.673-1.5-1.5s.673-1.5 1.5-1.5 1.5.673 1.5 1.5-.673 1.5-1.5 1.5zm0-2c-.276 0-.5.224-.5.5s.224.5.5.5.5-.224.5-.5-.224-.5-.5-.5z" fill="#a4afc1"/></g></g><g id="color"><g><circle cx="18" cy="18" fill="#f3f3f1" r="11.25"/></g></g><g id="shadow"><g><path d="m9 18c0-5.833 4.44-10.629 10.125-11.193-.37-.037-.745-.057-1.125-.057-6.213 0-11.25 5.037-11.25 11.25s5.037 11.25 11.25 11.25c.38 0 .755-.02 1.125-.057-5.685-.564-10.125-5.36-10.125-11.193z" fill="#d5dbe1"/></g></g><g id="regular"><g><path d="m18 30c-6.617 0-12-5.383-12-12s5.383-12 12-12 12 5.383 12 12-5.383 12-12 12zm0-22.5c-5.79 0-10.5 4.71-10.5 10.5s4.71 10.5 10.5 10.5 10.5-4.71 10.5-10.5-4.71-10.5-10.5-10.5z"/></g><g><path d="m13.18 16.864-.86-1.229 1.623-1.136-1.623-1.136.86-1.229 2.5 1.75c.2.14.32.37.32.614s-.12.474-.32.614z"/></g><g><path d="m22.82 16.864-2.5-1.75c-.2-.14-.32-.37-.32-.614s.12-.474.32-.614l2.5-1.75.86 1.229-1.622 1.135 1.623 1.136z"/></g><g><path d="m18 24c-.115 0-.23-.026-.335-.079l-2.649-1.325-2.406 1.312-.719-1.316 2.75-1.5c.216-.118.475-.122.695-.013l2.664 1.333 2.665-1.333c.22-.109.479-.105.695.013l2.75 1.5-.719 1.316-2.406-1.312-2.649 1.325c-.106.053-.221.079-.336.079z"/></g></g></svg>