<svg xmlns="http://www.w3.org/2000/svg" viewBox="0 0 216.43 319"><defs><style>.d1778b38-3496-46b6-a45b-5e8aaed3b15c{fill:#fff;}</style></defs><title>logo</title><g id="3693a9ca-80d9-4cf2-b04a-398a33861205" data-name="圖層 2"><g id="a99993d7-0a8e-43ee-b3a1-656de6add1a8" data-name="圖層 1"><rect class="d1778b38-3496-46b6-a45b-5e8aaed3b15c" x="25.66" y="178.06" width="12.68" height="140.95"/><rect class="d1778b38-3496-46b6-a45b-5e8aaed3b15c" x="0.04" y="153.67" width="12.68" height="165.33"/><rect class="d1778b38-3496-46b6-a45b-5e8aaed3b15c" x="51.28" y="204.82" width="12.68" height="114.18"/><path class="d1778b38-3496-46b6-a45b-5e8aaed3b15c" d="M144.81,19.9a95.61,95.61,0,0,1,0,176.55c-11.89,4.93-21.28,5.77-36.57,7.23-10.46,1-21.74,1-44.3,1.14-5.29,0-9.68,0-12.68,0V217l12.68-.1c39.15-.3,40.8-.24,44.3-.55,16.25-1.46,27.48-2.41,41.42-8.19A108.24,108.24,0,0,0,184.75,31.68,107.47,107.47,0,0,0,108.26,0H29.52l.1,12.68V51.24l-.1,12.68h78.74a44.26,44.26,0,0,1,0,88.51H0v12.69H108.26a56.94,56.94,0,0,0,0-113.88h-66V38.3h66a69.88,69.88,0,0,1,0,139.76H25.66v12.68h82.6a82.56,82.56,0,0,0,0-165.12h-66V12.68h66A95.08,95.08,0,0,1,144.81,19.9Z"/><rect class="d1778b38-3496-46b6-a45b-5e8aaed3b15c" x="2.85" y="306.38" width="60.09" height="12.63"/></g></g></svg>