<svg id="_x31__x2C_5" enable-background="new 0 0 36 36" height="512" viewBox="0 0 36 36" width="512" xmlns="http://www.w3.org/2000/svg"><path d="m8.377 4.167c6.917 0 11.667-3.583 15-3.583s10.333 1.916 10.333 17.249-9.417 17.583-13.083 17.583c-17.167.001-24.5-31.249-12.25-31.249z" fill="#efefef"/><g fill="#a4afc1"><path d="m27.467 1.967h1v2h-1z" transform="matrix(.707 -.707 .707 .707 6.093 20.645)"/><path d="m31.533 6.033h1v2h-1z" transform="matrix(.707 -.707 .707 .707 4.409 24.711)"/><path d="m30.856 2.467h2v1h-2z" transform="matrix(.707 -.707 .707 .707 7.233 23.395)"/></g><path d="m6.75 22h22.5v-5.25c0-1.105-.895-2-2-2h-18.5c-1.105 0-2 .895-2 2z" fill="#f3f3f1"/><path d="m8.75 29.25h18.5c1.105 0 2-.895 2-2v-5.25h-22.5v5.25c0 1.105.895 2 2 2z" fill="#f3f3f1"/><path d="m27.25 14.75h-18.5c-1.105 0-2-.895-2-2v-4c0-1.105.895-2 2-2h18.5c1.105 0 2 .895 2 2v4c0 1.105-.895 2-2 2z" fill="#2fdf84"/><path d="m9 12.75v-4c0-1.105.895-2 2-2h-2.25c-1.105 0-2 .895-2 2v4c0 1.105.895 2 2 2h2.25c-1.105 0-2-.895-2-2z" fill="#00b871"/><path d="m11 14.75h-2.25c-1.105 0-2 .895-2 2v5.25h2.25v-5.25c0-1.105.895-2 2-2z" fill="#d5dbe1"/><path d="m9 27.25v-5.25h-2.25v5.25c0 1.105.895 2 2 2h2.25c-1.105 0-2-.895-2-2z" fill="#d5dbe1"/><path d="m27.25 30h-18.5c-1.517 0-2.75-1.233-2.75-2.75v-10.5c0-1.517 1.233-2.75 2.75-2.75h18.5c1.517 0 2.75 1.233 2.75 2.75v10.5c0 1.517-1.233 2.75-2.75 2.75zm-18.5-14.5c-.689 0-1.25.561-1.25 1.25v10.5c0 .689.561 1.25 1.25 1.25h18.5c.689 0 1.25-.561 1.25-1.25v-10.5c0-.689-.561-1.25-1.25-1.25z"/><path d="m23.5 12c-.153 0-.306-.046-.436-.14l-2.36-1.686.872-1.221 1.924 1.375 1.924-1.375.872 1.221-2.36 1.686c-.13.094-.283.14-.436.14z"/><path d="m27.25 15.5h-18.5c-1.517 0-2.75-1.233-2.75-2.75v-4c0-1.517 1.233-2.75 2.75-2.75h18.5c1.517 0 2.75 1.233 2.75 2.75v4c0 1.517-1.233 2.75-2.75 2.75zm-18.5-8c-.689 0-1.25.561-1.25 1.25v4c0 .689.561 1.25 1.25 1.25h18.5c.689 0 1.25-.561 1.25-1.25v-4c0-.689-.561-1.25-1.25-1.25z"/><path d="m17.5 6.75h1.5v8h-1.5z"/><path d="m25 19c-.551 0-1-.449-1-1s.449-1 1-1 1 .449 1 1-.449 1-1 1z"/><path d="m25 27c-.551 0-1-.449-1-1s.449-1 1-1 1 .449 1 1-.449 1-1 1z"/><path d="m6.75 21.25h22.5v1.5h-22.5z"/></svg>