<svg id="line" enable-background="new 0 0 36 36" height="512" viewBox="0 0 36 36" width="512" xmlns="http://www.w3.org/2000/svg"><path d="m31.833 8.377c0 6.917 3.583 11.667 3.583 15s-1.916 10.333-17.249 10.333-17.584-9.417-17.584-13.083c0-17.167 31.25-24.5 31.25-12.25z" fill="#efefef"/><g fill="#a4afc1"><path d="m29.944 20.467h2v1h-2z" transform="matrix(.707 -.707 .707 .707 -5.763 28.022)"/><path d="m25.879 24.533h2v1h-2z" transform="matrix(.707 -.707 .707 .707 -9.828 26.338)"/><path d="m30.621 24.033h1v2h-1z" transform="matrix(.707 -.707 .707 .707 -8.587 29.331)"/><path d="m26.556 19.967h1v2h-1z" transform="matrix(.707 -.707 .707 .707 -6.902 25.267)"/></g><path d="m25.75 6.75h2.5v8.5h-2.5z" fill="#2fdf84"/><path d="m19.75 10.75h2.5v4.5h-2.5z" fill="#2fdf84"/><circle cx="14" cy="16" fill="#f3f3f1" r="3.25"/><path d="m21.25 30v-3.25c0-2.21-1.79-4-4-4h-6.5c-2.21 0-4 1.79-4 4v3.25z" fill="#f3f3f1"/><path d="m25.75 6.75h2.25v8.5h-2.25z" fill="#00b871"/><path d="m19.75 10.75h2.25v4.5h-2.25z" fill="#00b871"/><path d="m13 16c0-1.398.887-2.579 2.125-3.038-.352-.13-.728-.212-1.125-.212-1.795 0-3.25 1.455-3.25 3.25s1.455 3.25 3.25 3.25c.397 0 .773-.082 1.125-.212-1.238-.459-2.125-1.64-2.125-3.038z" fill="#d5dbe1"/><path d="m13 22.75h-2.25c-2.21 0-4 1.79-4 4v3.25h2.25v-3.25c0-2.21 1.79-4 4-4z" fill="#d5dbe1"/><path d="m28.25 16h-2.5c-.414 0-.75-.336-.75-.75v-8.5c0-.414.336-.75.75-.75h2.5c.414 0 .75.336.75.75v8.5c0 .414-.336.75-.75.75zm-1.75-1.5h1v-7h-1z"/><path d="m22.25 16h-1.52v-1.5h.77v-3h-1v.8h-1.5v-1.55c0-.414.336-.75.75-.75h2.5c.414 0 .75.336.75.75v4.5c0 .414-.336.75-.75.75z"/><path d="m19.98 14.5h10.02v1.5h-10.02z"/><path d="m14 20c-2.206 0-4-1.794-4-4s1.794-4 4-4 4 1.794 4 4-1.794 4-4 4zm0-6.5c-1.379 0-2.5 1.122-2.5 2.5s1.121 2.5 2.5 2.5 2.5-1.122 2.5-2.5-1.121-2.5-2.5-2.5z"/><path d="m22 30h-1.5v-3.25c0-1.792-1.458-3.25-3.25-3.25h-6.5c-1.792 0-3.25 1.458-3.25 3.25v3.25h-1.5v-3.25c0-2.619 2.131-4.75 4.75-4.75h6.5c2.619 0 4.75 2.131 4.75 4.75z"/><path d="m2 28.5h32v1.5h-32z"/></svg>