<svg enable-background="new 0 0 36 36" height="512" viewBox="0 0 36 36" width="512" xmlns="http://www.w3.org/2000/svg"><g id="BG"><g><path d="m27.417 3.914c-6.915.129-11.732-3.365-15.064-3.302s-10.296 2.109-10.009 17.44 9.744 17.404 13.41 17.336c17.163-.321 23.911-31.703 11.663-31.474z" fill="#efefef"/></g></g><g id="effect"><g><g><path d="m8.55 5.677h2v1h-2z" fill="#a4afc1" transform="matrix(.707 -.707 .707 .707 -1.57 8.562)"/></g><g><path d="m4.485 9.743h2v1h-2z" fill="#a4afc1" transform="matrix(.707 -.707 .707 .707 -5.636 6.878)"/></g><g><path d="m4.985 5h1v2h-1z" fill="#a4afc1" transform="matrix(.707 -.707 .707 .707 -2.636 5.636)"/></g></g><g><path d="m29.25 8.677c-.827 0-1.5-.673-1.5-1.5s.673-1.5 1.5-1.5 1.5.673 1.5 1.5-.673 1.5-1.5 1.5zm0-2c-.276 0-.5.224-.5.5s.224.5.5.5.5-.224.5-.5-.224-.5-.5-.5z" fill="#a4afc1"/></g></g><g id="color"><g><circle cx="18" cy="18" fill="#f3f3f1" r="11.25"/></g><g><path d="m18 14.892s-.972 4.375-4.861 4.375-3.889-5.348-3.889-5.348 6.198-.769 8.75.973z" fill="#2fdf84"/></g><g><path d="m18 14.892s.972 4.375 4.861 4.375 3.889-5.347 3.889-5.347-6.198-.77-8.75.972z" fill="#2fdf84"/></g></g><g id="shadow"><g><path d="m9 18c0-5.833 4.44-10.629 10.125-11.193-.37-.037-.745-.057-1.125-.057-6.213 0-11.25 5.037-11.25 11.25s5.037 11.25 11.25 11.25c.38 0 .755-.02 1.125-.057-5.685-.564-10.125-5.36-10.125-11.193z" fill="#d5dbe1"/></g><g><path d="m11.5 13.919s.795-.097 1.924-.144c-2.187-.102-4.174.144-4.174.144s0 5.347 3.889 5.347c.44 0 .838-.062 1.206-.162-2.835-.865-2.845-5.185-2.845-5.185z" fill="#00b871"/></g><g><path d="m20.25 14.892c1.107-.756 2.9-1.038 4.576-1.116-2.039-.085-5.184-.005-6.826 1.116 0 0 .972 4.375 4.861 4.375.389 0 .729-.066 1.044-.162-2.885-.779-3.655-4.213-3.655-4.213z" fill="#00b871"/></g></g><g id="regular"><g><path d="m18.25 27v-1.5c2.269 0 4.425-1.098 5.767-2.937l1.212.885c-1.624 2.224-4.232 3.552-6.979 3.552z"/></g><g><path d="m18 30c-6.617 0-12-5.383-12-12s5.383-12 12-12 12 5.383 12 12-5.383 12-12 12zm0-22.5c-5.79 0-10.5 4.71-10.5 10.5s4.71 10.5 10.5 10.5 10.5-4.71 10.5-10.5-4.71-10.5-10.5-10.5z"/></g><g><path d="m13.139 20.017c-3.669 0-4.639-3.988-4.639-6.097 0-.378.282-.698.658-.744.265-.034 6.51-.783 9.265 1.097.253.173.376.483.309.782-.381 1.716-2.041 4.962-5.593 4.962zm-3.097-5.425c.136 1.281.705 3.924 3.096 3.924 2.528 0 3.607-2.227 3.973-3.269-1.843-.87-5.224-.811-7.069-.655z"/></g><g><path d="m22.861 20.017c-3.552 0-5.212-3.246-5.593-4.962-.067-.299.056-.609.309-.782 2.755-1.88 9-1.131 9.265-1.097.375.046.658.366.658.744 0 2.108-.97 6.097-4.639 6.097zm-3.973-4.769c.366 1.042 1.445 3.269 3.973 3.269 2.391 0 2.96-2.643 3.096-3.924-1.845-.155-5.227-.214-7.069.655z"/></g></g></svg>