<svg id="_x31__x2C_5" enable-background="new 0 0 36 36" height="512" viewBox="0 0 36 36" width="512" xmlns="http://www.w3.org/2000/svg"><path d="m8.377 31.833c6.917 0 11.667 3.583 15 3.583s10.333-1.916 10.333-17.249-9.417-17.584-13.083-17.584c-17.167 0-24.5 31.25-12.25 31.25z" fill="#efefef"/><path d="m4.5 27c-.827 0-1.5-.673-1.5-1.5s.673-1.5 1.5-1.5 1.5.673 1.5 1.5-.673 1.5-1.5 1.5zm0-2c-.276 0-.5.224-.5.5s.224.5.5.5.5-.224.5-.5-.224-.5-.5-.5z" fill="#a4afc1"/><path d="m18 6.75v12.5h-9.25c-1.1 0-2-.9-2-2v-8.5c0-1.1.9-2 2-2z" fill="#f3f3f1"/><path d="m23.535 22.071c-.004-.004-.004-.004-.009-.009l-2.442-2.442c-.369-.368-.964-.368-1.333.001s-.369.964-.001 1.333l-.888-.888c-.368-.369-.964-.368-1.333.001s-.369.964-.001 1.333l-.444-.444c-.369-.369-.964-.368-1.333.001s-.369.964-.001 1.333l-2.664-2.664c-.368-.369-.964-.368-1.333.001s-.369.964-.001 1.333l4.542 4.542c-.689-.102-1.839-.141-2.546.565-.667.667-.649 1.129-.445 1.333.559.559.995-.329 3.553.887s4.202 1.108 5.331-.003l.889-.889.004-.004c1.586-1.585 2.04-3.735.455-5.32z" fill="#2fdf84"/><path d="m29.25 8.75v8.5c0 1.1-.9 2-2 2h-9.25v-12.5h9.25c1.1 0 2 .9 2 2z" fill="#f3f3f1"/><path d="m19.11 28.285c-2.558-1.216-2.994-.327-3.553-.887-.204-.204-.222-.666.445-1.333.707-.707 1.857-.667 2.546-.565l-4.542-4.542c-.19-.19-.278-.44-.272-.689l-.645-.645c-.368-.369-.964-.368-1.333.001s-.369.964-.001 1.333l4.542 4.542c-.689-.102-1.839-.141-2.546.565-.667.667-.649 1.129-.445 1.333.559.559.995-.329 3.553.887 1.796.853 3.134 1.043 4.166.703-.575-.141-1.207-.367-1.915-.703z" fill="#00b871"/><path d="m9 17.25v-8.5c0-1.1.9-2 2-2h-2.25c-1.1 0-2 .9-2 2v8.5c0 1.1.9 2 2 2h2.25c-1.1 0-2-.9-2-2z" fill="#d5dbe1"/><path d="m27.25 20h-1.88v-1.5h1.88c.689 0 1.25-.561 1.25-1.25v-8.5c0-.689-.561-1.25-1.25-1.25h-18.5c-.689 0-1.25.561-1.25 1.25v8.5c0 .689.561 1.25 1.25 1.25l.05 1.5h-.05c-1.517 0-2.75-1.233-2.75-2.75v-8.5c0-1.517 1.233-2.75 2.75-2.75h18.5c1.517 0 2.75 1.233 2.75 2.75v8.5c0 1.517-1.233 2.75-2.75 2.75z"/><path d="m17.25 6.75h1.5v9.57h-1.5z"/><path d="m14 16h-1.5v-3.9c0-.331-.224-.6-.5-.6s-.5.269-.5.6v3.9h-1.5v-3.9c0-1.158.897-2.1 2-2.1s2 .942 2 2.1z"/><path d="m10.75 12.7h2.5v1.5h-2.5z"/><path d="m24.208 16h-1.458c-.414 0-.75-.336-.75-.75v-4.5c0-.414.336-.75.75-.75h1.458c.988 0 1.792.841 1.792 1.875 0 .422-.134.812-.359 1.125.225.313.359.703.359 1.125 0 1.034-.804 1.875-1.792 1.875zm-.708-1.5h.708c.158 0 .292-.172.292-.375s-.133-.375-.292-.375h-.708zm0-2.25h.708c.158 0 .292-.172.292-.375s-.133-.375-.292-.375h-.708z"/><path d="m16.332 23.928-1.11-1.11c-.66-.66-.66-1.733 0-2.393.32-.32.745-.497 1.196-.497h.001c.452 0 .876.176 1.196.497l.444.443-1.059 1.061-.444-.444c-.064-.065-.208-.063-.272 0-.076.077-.077.196 0 .272l1.11 1.11z"/><path d="m18.109 23.039-1.109-1.11c-.32-.319-.496-.745-.496-1.197 0-.451.177-.876.496-1.196.661-.661 1.734-.66 2.394-.001l.888.888-1.061 1.061-.888-.888c-.076-.076-.196-.075-.273.001-.063.063-.064.207 0 .271l1.11 1.111z"/><path d="m20.008 29.902c-1 0-2.152-.313-3.47-.94-1.37-.65-2.019-.624-2.449-.611-.384.014-.859.032-1.313-.423-.302-.302-.413-.738-.303-1.197.093-.39.345-.792.749-1.196.383-.384.846-.607 1.324-.726l-3.321-3.321c-.66-.66-.66-1.733 0-2.393.32-.32.745-.497 1.196-.497h.001c.452 0 .876.176 1.196.496l2.664 2.664-1.061 1.061-2.664-2.664c-.076-.075-.195-.075-.272.001-.076.076-.077.196 0 .272l4.542 4.542c.229.229.285.578.14.867-.145.29-.459.451-.779.405-.506-.076-1.424-.128-1.906.354-.101.101-.173.187-.225.256.546-.02 1.448-.041 3.125.756 2.795 1.328 3.897.716 4.482.14l.885-.884c.687-.688 1.113-1.475 1.204-2.223.093-.764-.159-1.45-.748-2.039l-2.451-2.451c-.076-.075-.195-.076-.271 0-.048.048-.058.101-.058.137s.01.088.056.135l.667.667-1.061 1.061-.666-.666c-.32-.319-.496-.744-.496-1.196s.177-.877.498-1.198c.659-.66 1.733-.661 2.392-.001l2.442 2.443c.927.927 1.334 2.062 1.185 3.289-.131 1.078-.709 2.178-1.628 3.096l-.894.894c-.738.727-1.637 1.09-2.712 1.09z"/></svg>