<svg id="_x31__x2C_5" enable-background="new 0 0 36 36" height="512" viewBox="0 0 36 36" width="512" xmlns="http://www.w3.org/2000/svg"><g><path d="m8.377 4.167c6.917 0 11.667-3.583 15-3.583s10.333 1.916 10.333 17.249-9.417 17.583-13.083 17.583c-17.167.001-24.5-31.249-12.25-31.249z" fill="#efefef"/></g><g><g><path d="m26.467 2.467h1v2h-1z" fill="#a4afc1" transform="matrix(.707 -.707 .707 .707 5.447 20.084)"/></g><g><path d="m30.533 6.533h1v2h-1z" fill="#a4afc1" transform="matrix(.707 -.707 .707 .707 3.763 24.15)"/></g><g><path d="m29.856 2.967h2v1h-2z" fill="#a4afc1" transform="matrix(.707 -.707 .707 .707 6.586 22.834)"/></g></g><g><path d="m20.277 26.25h-11.527c-1.1 0-2-.9-2-2v-15.5c0-1.1.9-2 2-2h11.5c1.1 0 2 .9 2 2l.027 15.497c.001 1.105-.895 2.003-2 2.003z" fill="#f3f3f1"/></g><g><circle cx="14.5" cy="11" fill="#2fdf84" r="1.25"/></g><g><path d="m17.75 18v-1.25c0-1.105-.895-2-2-2h-2.5c-1.105 0-2 .895-2 2v1.25z" fill="#2fdf84"/></g><g><circle cx="23" cy="23" fill="#2fdf84" r="4.25"/></g><g><path d="m9 24.25v-15.5c0-1.1.9-2 2-2h-2.25c-1.1 0-2 .9-2 2v15.5c0 1.1.9 2 2 2h2.25c-1.1 0-2-.9-2-2z" fill="#d5dbe1"/></g><g><path d="m15.5 11c0-.19.049-.365.125-.526-.2-.425-.625-.724-1.125-.724-.69 0-1.25.56-1.25 1.25s.56 1.25 1.25 1.25c.5 0 .925-.299 1.125-.724-.076-.161-.125-.336-.125-.526z" fill="#00b871"/></g><g><path d="m15.5 14.75h-2.25c-1.105 0-2 .895-2 2v1.25h2.25v-1.25c0-1.105.895-2 2-2z" fill="#00b871"/></g><g><path d="m21 23c0-1.955 1.328-3.585 3.125-4.08-.361-.099-.733-.17-1.125-.17-2.347 0-4.25 1.903-4.25 4.25s1.903 4.25 4.25 4.25c.392 0 .764-.07 1.125-.17-1.797-.495-3.125-2.125-3.125-4.08z" fill="#00b871"/></g><g><path d="m10 19.5h6v1.5h-6z"/></g><g><path d="m10 22.5h5.52v1.5h-5.52z"/></g><g><path d="m14.5 13c-1.103 0-2-.897-2-2s.897-2 2-2 2 .897 2 2-.897 2-2 2zm0-2.5c-.276 0-.5.224-.5.5s.224.5.5.5.5-.224.5-.5-.224-.5-.5-.5z"/></g><g><path d="m18.5 18h-1.5v-1.25c0-.689-.561-1.25-1.25-1.25h-2.5c-.689 0-1.25.561-1.25 1.25v1.25h-1.5v-1.25c0-1.517 1.233-2.75 2.75-2.75h2.5c1.517 0 2.75 1.233 2.75 2.75z"/></g><g><path d="m17.03 27h-8.28c-1.517 0-2.75-1.233-2.75-2.75v-15.5c0-1.517 1.233-2.75 2.75-2.75h11.5c1.517 0 2.75 1.233 2.75 2.75v7.27h-1.5v-7.27c0-.689-.561-1.25-1.25-1.25h-11.5c-.689 0-1.25.561-1.25 1.25v15.5c0 .689.561 1.25 1.25 1.25h8.28z"/></g><g><path d="m23 28c-2.757 0-5-2.243-5-5s2.243-5 5-5 5 2.243 5 5-2.243 5-5 5zm0-8.5c-1.93 0-3.5 1.57-3.5 3.5s1.57 3.5 3.5 3.5 3.5-1.57 3.5-3.5-1.57-3.5-3.5-3.5z"/></g><g><path d="m26.966 24.797h1.5v5.838h-1.5z" transform="matrix(.707 -.707 .707 .707 -11.48 27.716)"/></g></svg>