<svg enable-background="new 0 0 36 36" height="512" viewBox="0 0 36 36" width="512" xmlns="http://www.w3.org/2000/svg"><path d="m8.114 5.564c-1.805 6.677-6.504 10.327-7.374 13.545s-.847 10.475 13.955 14.477 19.432-4.501 20.388-8.041c4.481-16.572-23.772-31.807-26.969-19.981z" fill="#efefef"/><path d="m27.179 21.985-15.016-15.163c-.043-.045-.104-.072-.171-.072-.134 0-.242.11-.242.245v22.011c0 .135.108.245.242.245.068 0 .13-.029.174-.075l6.468-6.773h8.371.002c.134 0 .242-.11.242-.245.001-.068-.026-.129-.07-.173z" fill="#2fdf84"/><path d="m14 8.676-1.837-1.855c-.043-.044-.104-.071-.171-.071-.134 0-.242.109-.242.245v22.011c0 .135.108.245.242.245.068 0 .13-.029.174-.075l1.834-1.921z" fill="#00b871"/><g fill="#a4afc1"><path d="m8.445 6.5c-.827 0-1.5-.673-1.5-1.5s.673-1.5 1.5-1.5 1.5.673 1.5 1.5-.673 1.5-1.5 1.5zm0-2c-.276 0-.5.224-.5.5s.224.5.5.5.5-.224.5-.5-.224-.5-.5-.5z"/><path d="m30.121 24.49h1v2h-1z" transform="matrix(.707 -.707 .707 .707 -9.055 29.118)"/><path d="m25.378 24.99h2v1h-2z" transform="matrix(.707 -.707 .707 .707 -10.298 26.118)"/><path d="m29.445 20.924h2v1h-2z" transform="matrix(.707 -.707 .707 .707 -6.232 27.803)"/></g><path d="m11.992 30c-.547 0-.992-.446-.992-.995v-22.01c0-.549.445-.995.992-.995.267 0 .517.104.705.294l15.013 15.162c.187.187.29.437.29.702 0 .548-.445.995-.992.995h-8.053l-6.246 6.541c-.187.195-.448.306-.717.306zm.508-21.772v19.512l5.592-5.856c.142-.148.337-.232.542-.232h7.16z"/></svg>