<svg id="_x31__x2C_5" enable-background="new 0 0 36 36" height="512" viewBox="0 0 36 36" width="512" xmlns="http://www.w3.org/2000/svg"><path d="m8.377 4.167c6.917 0 11.667-3.583 15-3.583s10.333 1.916 10.333 17.249-9.417 17.583-13.083 17.583c-17.167.001-24.5-31.249-12.25-31.249z" fill="#efefef"/><g fill="#a4afc1"><path d="m6.033 3.467h2v1h-2z" transform="matrix(.707 -.707 .707 .707 -.745 6.135)"/><path d="m1.967 7.533h2v1h-2z" transform="matrix(.707 -.707 .707 .707 -4.811 4.451)"/><path d="m2.644 2.967h1v2h-1z" transform="matrix(.707 -.707 .707 .707 -1.884 3.384)"/></g><path d="m27.25 28.25h-18.5c-1.105 0-2-.895-2-2v-15h22.5v15c0 1.105-.895 2-2 2z" fill="#f3f3f1"/><path d="m6.75 11.25h22.5v-1.5c0-1.105-.895-2-2-2h-18.5c-1.105 0-2 .895-2 2z" fill="#2fdf84"/><path d="m11.75 14.75h12.5v10.5h-12.5z" fill="#2fdf84"/><path d="m11 7.75h-2.25c-1.105 0-2 .895-2 2v1.5h2.25v-1.5c0-1.105.895-2 2-2z" fill="#00b871"/><path d="m11.75 14.75h2.25v10.5h-2.25z" fill="#00b871"/><path d="m9 26.25v-15h-2.25v15c0 1.105.895 2 2 2h2.25c-1.105 0-2-.895-2-2z" fill="#d5dbe1"/><path d="m24.25 26h-12.5c-.414 0-.75-.336-.75-.75v-10.5c0-.414.336-.75.75-.75h12.5c.414 0 .75.336.75.75v10.5c0 .414-.336.75-.75.75zm-11.75-1.5h11v-9h-11z"/><path d="m15 14.75h1.5v10.5h-1.5z"/><path d="m11.75 19.25h12.5v1.5h-12.5z"/><path d="m27.25 29h-18.5c-1.517 0-2.75-1.233-2.75-2.75v-16.5c0-1.517 1.233-2.75 2.75-2.75h18.5c1.517 0 2.75 1.233 2.75 2.75v16.5c0 1.517-1.233 2.75-2.75 2.75zm-18.5-20.5c-.689 0-1.25.561-1.25 1.25v16.5c0 .689.561 1.25 1.25 1.25h18.5c.689 0 1.25-.561 1.25-1.25v-16.5c0-.689-.561-1.25-1.25-1.25z"/><path d="m6.75 10.5h22.5v1.5h-22.5z"/></svg>