<svg enable-background="new 0 0 36 36" height="512" viewBox="0 0 36 36" width="512" xmlns="http://www.w3.org/2000/svg"><g id="BG"><path d="m4.167 27.623c0-6.917-3.583-11.667-3.583-15s1.916-10.333 17.249-10.333 17.583 9.417 17.583 13.083c.001 17.167-31.249 24.5-31.249 12.25z" fill="#efefef"/></g><g id="effect"><g><path d="m6.063 7.816h2v1h-2z" fill="#a4afc1" transform="matrix(.707 -.707 .707 .707 -3.812 7.43)"/></g><g><path d="m1.997 11.882h2v1h-2z" fill="#a4afc1" transform="matrix(.707 -.707 .707 .707 -7.878 5.746)"/></g><g><path d="m2.497 7.14h1v2h-1z" fill="#a4afc1" transform="matrix(.707 -.707 .707 .707 -4.878 4.503)"/></g><path d="m30.25 17.625c-.827 0-1.5-.673-1.5-1.5s.673-1.5 1.5-1.5 1.5.673 1.5 1.5-.673 1.5-1.5 1.5zm0-2c-.275 0-.5.225-.5.5s.225.5.5.5.5-.225.5-.5-.225-.5-.5-.5z" fill="#a4afc1"/></g><g id="color"><path d="m6.75 12.75v13.5h1.75 4 8.25v-10.75-2.75z" fill="#2fdf84"/><path d="m25.879 17.265c-.223-.89-1.023-1.515-1.94-1.515h-3.189v4h5.75z" fill="#2fdf84"/><g fill="#f3f3f1"><path d="m26.5 19.75h-5.75v6.5h2.25 4 2.25v-4.75z"/><circle cx="25" cy="26.5" r="1.75"/><circle cx="10.5" cy="26.5" r="1.75"/></g></g><g id="shadow"><path d="m6.75 12.75v13.5h1.75.5v-13.5z" fill="#00b871"/><path d="m20.75 15.75h2.25v4h-2.25z" fill="#00b871"/><g fill="#d5dbe1"><path d="m20.75 19.75h2.25v6.5h-2.25z"/><path d="m25.5 26.5c0-.536.246-1.009.625-1.33-.305-.258-.694-.42-1.125-.42-.966 0-1.75.784-1.75 1.75s.784 1.75 1.75 1.75c.431 0 .82-.162 1.125-.42-.379-.321-.625-.794-.625-1.33z"/><path d="m11 26.5c0-.536.246-1.009.625-1.33-.305-.258-.694-.42-1.125-.42-.966 0-1.75.784-1.75 1.75s.784 1.75 1.75 1.75c.431 0 .82-.162 1.125-.42-.379-.321-.625-.794-.625-1.33z"/></g></g><g id="reg"><path d="m20.75 27h-8.25v-1.5h7.5v-12h-12.5v12h1v1.5h-1.75c-.414 0-.75-.336-.75-.75v-13.5c0-.414.336-.75.75-.75h14c.414 0 .75.336.75.75v13.5c0 .414-.336.75-.75.75z"/><path d="m21.5 20.75h-1.5v-5c0-.414.336-.75.75-.75h3.188c1.264 0 2.361.856 2.668 2.083l.621 2.485-1.455.363-.621-2.485c-.14-.557-.639-.946-1.213-.946h-2.438z"/><path d="m29.25 27h-2.25v-1.5h1.5v-3.588l-2.219-1.412h-4.781v5h1.5v1.5h-2.25c-.414 0-.75-.336-.75-.75v-6.5c0-.414.336-.75.75-.75h5.75c.143 0 .282.041.402.117l2.75 1.75c.217.138.348.376.348.633v4.75c0 .414-.336.75-.75.75z"/><path d="m25 29c-1.379 0-2.5-1.121-2.5-2.5s1.121-2.5 2.5-2.5 2.5 1.121 2.5 2.5-1.121 2.5-2.5 2.5zm0-3.5c-.552 0-1 .448-1 1s.448 1 1 1 1-.448 1-1-.448-1-1-1z"/><path d="m10.5 29c-1.379 0-2.5-1.121-2.5-2.5s1.121-2.5 2.5-2.5 2.5 1.121 2.5 2.5-1.121 2.5-2.5 2.5zm0-3.5c-.552 0-1 .448-1 1s.448 1 1 1 1-.448 1-1-.448-1-1-1z"/></g></svg>